<svg xmlns="http://www.w3.org/2000/svg" xmlns:xlink="http://www.w3.org/1999/xlink" width="2000" zoomAndPan="magnify" viewBox="0 0 1500 1499.999933" height="2000" preserveAspectRatio="xMidYMid meet" version="1.0"><defs><clipPath id="458faabff7"><path d="M 735.78125 272.082031 L 767.207031 272.082031 L 767.207031 299.539062 L 735.78125 299.539062 Z M 735.78125 272.082031 " clip-rule="nonzero"/></clipPath><clipPath id="3cb0022d11"><path d="M 751.46875 272.082031 L 767.160156 299.539062 L 735.78125 299.539062 Z M 751.46875 272.082031 " clip-rule="nonzero"/></clipPath><clipPath id="f4947a7baf"><path d="M 0.78125 0.0820312 L 32.207031 0.0820312 L 32.207031 27.539062 L 0.78125 27.539062 Z M 0.78125 0.0820312 " clip-rule="nonzero"/></clipPath><clipPath id="88b09eb4d6"><path d="M 16.46875 0.0820312 L 32.160156 27.539062 L 0.78125 27.539062 Z M 16.46875 0.0820312 " clip-rule="nonzero"/></clipPath><clipPath id="019a745bfc"><rect x="0" width="33" y="0" height="28"/></clipPath><clipPath id="49ef0e8ccd"><path d="M 734.597656 1180.125 L 766.023438 1180.125 L 766.023438 1207.582031 L 734.597656 1207.582031 Z M 734.597656 1180.125 " clip-rule="nonzero"/></clipPath><clipPath id="1aff5e96f6"><path d="M 750.332031 1207.582031 L 734.640625 1180.125 L 766.023438 1180.125 Z M 750.332031 1207.582031 " clip-rule="nonzero"/></clipPath><clipPath id="3d83ec2816"><path d="M 0.640625 0.125 L 32.023438 0.125 L 32.023438 27.582031 L 0.640625 27.582031 Z M 0.640625 0.125 " clip-rule="nonzero"/></clipPath><clipPath id="65b0fafe5b"><path d="M 16.332031 27.582031 L 0.640625 0.125 L 32.023438 0.125 Z M 16.332031 27.582031 " clip-rule="nonzero"/></clipPath><clipPath id="304406a7b1"><rect x="0" width="33" y="0" height="28"/></clipPath><clipPath id="cc47c66ce6"><path d="M 1097.550781 258.351562 L 1128.976562 258.351562 L 1128.976562 285.8125 L 1097.550781 285.8125 Z M 1097.550781 258.351562 " clip-rule="nonzero"/></clipPath><clipPath id="037f791b04"><path d="M 1113.242188 258.351562 L 1128.933594 285.8125 L 1097.550781 285.8125 Z M 1113.242188 258.351562 " clip-rule="nonzero"/></clipPath><clipPath id="abb67d57e6"><path d="M 0.550781 0.351562 L 31.960938 0.351562 L 31.960938 27.8125 L 0.550781 27.8125 Z M 0.550781 0.351562 " clip-rule="nonzero"/></clipPath><clipPath id="22f4dbe2d6"><path d="M 16.242188 0.351562 L 31.933594 27.8125 L 0.550781 27.8125 Z M 16.242188 0.351562 " clip-rule="nonzero"/></clipPath><clipPath id="dc55a22cb2"><rect x="0" width="32" y="0" height="28"/></clipPath><clipPath id="ccfc7263d8"><path d="M 373.140625 259.574219 L 404.566406 259.574219 L 404.566406 287.03125 L 373.140625 287.03125 Z M 373.140625 259.574219 " clip-rule="nonzero"/></clipPath><clipPath id="56860984f0"><path d="M 388.828125 259.574219 L 404.519531 287.03125 L 373.140625 287.03125 Z M 388.828125 259.574219 " clip-rule="nonzero"/></clipPath><clipPath id="bc7696eab0"><path d="M 0.140625 0.574219 L 31.566406 0.574219 L 31.566406 28.03125 L 0.140625 28.03125 Z M 0.140625 0.574219 " clip-rule="nonzero"/></clipPath><clipPath id="1a451dc00b"><path d="M 15.828125 0.574219 L 31.519531 28.03125 L 0.140625 28.03125 Z M 15.828125 0.574219 " clip-rule="nonzero"/></clipPath><clipPath id="8afc0387e4"><rect x="0" width="32" y="0" height="29"/></clipPath></defs><path stroke-linecap="butt" transform="matrix(0.29432, -0.689837, 0.689837, 0.29432, 362.232014, 1176.737447)" fill="none" stroke-linejoin="miter" d="M -0.000214668 28.497551 L 1282.669824 28.503076 " stroke="#579158" stroke-width="57" stroke-opacity="1" stroke-miterlimit="4"/><path stroke-linecap="butt" transform="matrix(0.29432, -0.689837, 0.689837, 0.29432, 724.003675, 1163.008248)" fill="none" stroke-linejoin="miter" d="M 0.00227236 28.499065 L 1282.670267 28.4998 " stroke="#b0d9a9" stroke-width="57" stroke-opacity="1" stroke-miterlimit="4"/><path stroke-linecap="butt" transform="matrix(-0.292417, -0.690646, 0.690646, -0.292417, 1099.073843, 1193.978205)" fill="none" stroke-linejoin="miter" d="M -0.000547439 28.50057 L 1282.669212 28.500956 " stroke="#579158" stroke-width="57" stroke-opacity="1" stroke-miterlimit="4"/><g clip-path="url(#458faabff7)"><g clip-path="url(#3cb0022d11)"><g transform="matrix(1, 0, 0, 1, 735, 272)"><g clip-path="url(#019a745bfc)"><g clip-path="url(#f4947a7baf)"><g clip-path="url(#88b09eb4d6)"><path fill="#579158" d="M 0.78125 0.0820312 L 32.207031 0.0820312 L 32.207031 27.539062 L 0.78125 27.539062 Z M 0.78125 0.0820312 " fill-opacity="1" fill-rule="nonzero"/></g></g></g></g></g></g><path stroke-linecap="butt" transform="matrix(0.296166, -0.689047, 0.689047, 0.296166, 691.630942, 369.709753)" fill="none" stroke-linejoin="miter" d="M 0.000126664 8.999462 L 141.681223 8.999204 " stroke="#ffffff" stroke-width="18" stroke-opacity="1" stroke-miterlimit="4"/><path stroke-linecap="butt" transform="matrix(-0.290478, -0.691464, 0.691464, -0.290478, 800.710404, 380.966578)" fill="none" stroke-linejoin="miter" d="M 0.000207654 14.999607 L 141.683511 14.999118 " stroke="#ffffff" stroke-width="30" stroke-opacity="1" stroke-miterlimit="4"/><path stroke-linecap="butt" transform="matrix(-0.29432, 0.689837, -0.689837, -0.29432, 1139.568679, 302.928206)" fill="none" stroke-linejoin="miter" d="M -0.00221067 28.498275 L 1282.672618 28.501756 " stroke="#b0d9a9" stroke-width="57" stroke-opacity="1" stroke-miterlimit="4"/><path stroke-linecap="butt" transform="matrix(0.292417, 0.690646, -0.690646, 0.292417, 402.726887, 285.687435)" fill="none" stroke-linejoin="miter" d="M -0.00245801 28.499685 L 1282.672098 28.502103 " stroke="#b0d9a9" stroke-width="57" stroke-opacity="1" stroke-miterlimit="4"/><g clip-path="url(#49ef0e8ccd)"><g clip-path="url(#1aff5e96f6)"><g transform="matrix(1, 0, 0, 1, 734, 1180)"><g clip-path="url(#304406a7b1)"><g clip-path="url(#3d83ec2816)"><g clip-path="url(#65b0fafe5b)"><path fill="#b0d9a9" d="M 32.023438 27.582031 L 0.597656 27.582031 L 0.597656 0.125 L 32.023438 0.125 Z M 32.023438 27.582031 " fill-opacity="1" fill-rule="nonzero"/></g></g></g></g></g></g><path stroke-linecap="butt" transform="matrix(-0.296166, 0.689047, -0.689047, -0.296166, 809.468052, 1109.95582)" fill="none" stroke-linejoin="miter" d="M -0.00102005 9.001896 L 141.680076 9.001637 " stroke="#ffffff" stroke-width="18" stroke-opacity="1" stroke-miterlimit="4"/><path stroke-linecap="butt" transform="matrix(0.290478, 0.691464, -0.691464, 0.290478, 701.094477, 1098.699029)" fill="none" stroke-linejoin="miter" d="M -0.001791 14.999048 L 141.681513 14.998559 " stroke="#ffffff" stroke-width="30" stroke-opacity="1" stroke-miterlimit="4"/><path stroke-linecap="butt" transform="matrix(-0.292417, -0.690646, 0.690646, -0.292417, 1460.845564, 1180.249102)" fill="none" stroke-linejoin="miter" d="M 0.00226794 28.498591 L 1282.672028 28.498978 " stroke="#b0d9a9" stroke-width="57" stroke-opacity="1" stroke-miterlimit="4"/><g clip-path="url(#cc47c66ce6)"><g clip-path="url(#037f791b04)"><g transform="matrix(1, 0, 0, 1, 1097, 258)"><g clip-path="url(#dc55a22cb2)"><g clip-path="url(#abb67d57e6)"><g clip-path="url(#22f4dbe2d6)"><path fill="#b0d9a9" d="M 0.550781 0.351562 L 31.976562 0.351562 L 31.976562 27.8125 L 0.550781 27.8125 Z M 0.550781 0.351562 " fill-opacity="1" fill-rule="nonzero"/></g></g></g></g></g></g><path stroke-linecap="butt" transform="matrix(0.296166, -0.689047, 0.689047, 0.296166, 1054.108431, 355.980681)" fill="none" stroke-linejoin="miter" d="M 0.00135041 8.997592 L 141.682446 8.997334 " stroke="#ffffff" stroke-width="18" stroke-opacity="1" stroke-miterlimit="4"/><path stroke-linecap="butt" transform="matrix(-0.290478, -0.691464, 0.691464, -0.290478, 1162.482125, 367.237477)" fill="none" stroke-linejoin="miter" d="M 0.00100321 15.002424 L 141.679505 14.999918 " stroke="#ffffff" stroke-width="30" stroke-opacity="1" stroke-miterlimit="4"/><path stroke-linecap="butt" transform="matrix(-0.29432, 0.689837, -0.689837, -0.29432, 416.829021, 295.425775)" fill="none" stroke-linejoin="miter" d="M 0.00209377 28.500106 L 1282.670088 28.50084 " stroke="#b0d9a9" stroke-width="57" stroke-opacity="1" stroke-miterlimit="4"/><path stroke-linecap="butt" transform="matrix(-0.292417, -0.690646, 0.690646, -0.292417, 735.258474, 1180.249102)" fill="none" stroke-linejoin="miter" d="M 0.00166907 28.500006 L 1282.671429 28.500392 " stroke="#b0d9a9" stroke-width="57" stroke-opacity="1" stroke-miterlimit="4"/><g clip-path="url(#ccfc7263d8)"><g clip-path="url(#56860984f0)"><g transform="matrix(1, 0, 0, 1, 373, 259)"><g clip-path="url(#8afc0387e4)"><g clip-path="url(#bc7696eab0)"><g clip-path="url(#1a451dc00b)"><path fill="#b0d9a9" d="M 0.140625 0.574219 L 31.566406 0.574219 L 31.566406 28.03125 L 0.140625 28.03125 Z M 0.140625 0.574219 " fill-opacity="1" fill-rule="nonzero"/></g></g></g></g></g></g><path stroke-linecap="butt" transform="matrix(0.296166, -0.689047, 0.689047, 0.296166, 320.225396, 339.754727)" fill="none" stroke-linejoin="miter" d="M -0.00257315 8.999601 L 141.678523 8.999342 " stroke="#ffffff" stroke-width="18" stroke-opacity="1" stroke-miterlimit="4"/><path stroke-linecap="butt" transform="matrix(0.296166, -0.689047, 0.689047, 0.296166, 327.516627, 362.543474)" fill="none" stroke-linejoin="miter" d="M 0.0027404 8.999839 L 141.683836 8.999581 " stroke="#ffffff" stroke-width="18" stroke-opacity="1" stroke-miterlimit="4"/><path stroke-linecap="butt" transform="matrix(-0.294056, -0.68995, 0.68995, -0.294056, 428.996276, 347.846727)" fill="none" stroke-linejoin="miter" d="M 0.000604489 9.002003 L 141.683964 9.000187 " stroke="#ffffff" stroke-width="18" stroke-opacity="1" stroke-miterlimit="4"/><path stroke-linecap="butt" transform="matrix(0.299084, 0.687786, -0.687786, 0.299084, 712.551356, 1126.163211)" fill="none" stroke-linejoin="miter" d="M -0.00135965 14.999696 L 141.683691 15.000657 " stroke="#ffffff" stroke-width="30" stroke-opacity="1" stroke-miterlimit="4"/><path stroke-linecap="butt" transform="matrix(-0.314294, 0.680969, -0.680969, -0.314294, 796.854925, 1161.3894)" fill="none" stroke-linejoin="miter" d="M 0.000815608 14.999268 L 141.682872 15.001448 " stroke="#ffffff" stroke-width="30" stroke-opacity="1" stroke-miterlimit="4"/><path stroke-linecap="butt" transform="matrix(-0.292417, -0.690646, 0.690646, -0.292417, 1099.073843, 1193.978205)" fill="none" stroke-linejoin="miter" d="M -0.000547439 28.50057 L 1282.669212 28.500956 " stroke="#579158" stroke-width="57" stroke-opacity="1" stroke-miterlimit="4"/><path stroke-linecap="butt" transform="matrix(0.296166, -0.689047, 0.689047, 0.296166, 685.416598, 383.438853)" fill="none" stroke-linejoin="miter" d="M -0.00181291 8.99957 L 141.679283 8.999311 " stroke="#ffffff" stroke-width="18" stroke-opacity="1" stroke-miterlimit="4"/><path stroke-linecap="butt" transform="matrix(0.29432, -0.689837, 0.689837, 0.29432, 361.176007, 1178.715454)" fill="none" stroke-linejoin="miter" d="M -0.00254222 28.500457 L 1282.670243 28.499147 " stroke="#579158" stroke-width="57" stroke-opacity="1" stroke-miterlimit="4"/><path stroke-linecap="butt" transform="matrix(-0.290478, -0.691464, 0.691464, -0.290478, 811.103939, 406.228217)" fill="none" stroke-linejoin="miter" d="M -0.000404274 15.000791 L 141.682899 15.000302 " stroke="#ffffff" stroke-width="30" stroke-opacity="1" stroke-miterlimit="4"/></svg>