<svg xmlns="http://www.w3.org/2000/svg" xmlns:xlink="http://www.w3.org/1999/xlink" width="2000" zoomAndPan="magnify" viewBox="0 0 1500 1499.999933" height="2000" preserveAspectRatio="xMidYMid meet" version="1.0"><defs><clipPath id="4ca1ade502"><path d="M 755.722656 515.175781 L 771.402344 515.175781 L 771.402344 528.875 L 755.722656 528.875 Z M 755.722656 515.175781 " clip-rule="nonzero"/></clipPath><clipPath id="9f1667072b"><path d="M 763.550781 515.175781 L 771.378906 528.875 L 755.722656 528.875 Z M 763.550781 515.175781 " clip-rule="nonzero"/></clipPath><clipPath id="70e716961c"><path d="M 0.722656 0.175781 L 16.402344 0.175781 L 16.402344 13.875 L 0.722656 13.875 Z M 0.722656 0.175781 " clip-rule="nonzero"/></clipPath><clipPath id="29ad76c717"><path d="M 8.550781 0.175781 L 16.378906 13.875 L 0.722656 13.875 Z M 8.550781 0.175781 " clip-rule="nonzero"/></clipPath><clipPath id="4f1acd9659"><rect x="0" width="17" y="0" height="14"/></clipPath><clipPath id="6521e3b551"><path d="M 755.132812 968.25 L 770.816406 968.25 L 770.816406 981.949219 L 755.132812 981.949219 Z M 755.132812 968.25 " clip-rule="nonzero"/></clipPath><clipPath id="767b970bcd"><path d="M 762.988281 981.949219 L 755.15625 968.25 L 770.816406 968.25 Z M 762.988281 981.949219 " clip-rule="nonzero"/></clipPath><clipPath id="097df584e7"><path d="M 0.132812 0.25 L 15.816406 0.25 L 15.816406 13.949219 L 0.132812 13.949219 Z M 0.132812 0.25 " clip-rule="nonzero"/></clipPath><clipPath id="35cf58c968"><path d="M 7.988281 13.949219 L 0.15625 0.25 L 15.816406 0.25 Z M 7.988281 13.949219 " clip-rule="nonzero"/></clipPath><clipPath id="5ce04c0670"><rect x="0" width="16" y="0" height="14"/></clipPath><clipPath id="8564aa4bfb"><path d="M 936.230469 508.324219 L 951.910156 508.324219 L 951.910156 522.023438 L 936.230469 522.023438 Z M 936.230469 508.324219 " clip-rule="nonzero"/></clipPath><clipPath id="dc4d6f6698"><path d="M 944.058594 508.324219 L 951.890625 522.023438 L 936.230469 522.023438 Z M 944.058594 508.324219 " clip-rule="nonzero"/></clipPath><clipPath id="dbbdae0e2a"><path d="M 0.230469 0.324219 L 15.910156 0.324219 L 15.910156 14.023438 L 0.230469 14.023438 Z M 0.230469 0.324219 " clip-rule="nonzero"/></clipPath><clipPath id="941279a301"><path d="M 8.058594 0.324219 L 15.890625 14.023438 L 0.230469 14.023438 Z M 8.058594 0.324219 " clip-rule="nonzero"/></clipPath><clipPath id="dba53c2204"><rect x="0" width="16" y="0" height="15"/></clipPath><clipPath id="9674b5a4e4"><path d="M 574.777344 508.933594 L 590.460938 508.933594 L 590.460938 522.632812 L 574.777344 522.632812 Z M 574.777344 508.933594 " clip-rule="nonzero"/></clipPath><clipPath id="528b2e5e8c"><path d="M 582.609375 508.933594 L 590.4375 522.632812 L 574.777344 522.632812 Z M 582.609375 508.933594 " clip-rule="nonzero"/></clipPath><clipPath id="0885873a5d"><path d="M 0.777344 0.933594 L 16.460938 0.933594 L 16.460938 14.632812 L 0.777344 14.632812 Z M 0.777344 0.933594 " clip-rule="nonzero"/></clipPath><clipPath id="bbbc50411d"><path d="M 8.609375 0.933594 L 16.4375 14.632812 L 0.777344 14.632812 Z M 8.609375 0.933594 " clip-rule="nonzero"/></clipPath><clipPath id="ae552920e1"><rect x="0" width="17" y="0" height="15"/></clipPath></defs><path stroke-linecap="butt" transform="matrix(0.29432, -0.689837, 0.689837, 0.29432, 569.4908, 966.627377)" fill="none" stroke-linejoin="miter" d="M 0.00212117 13.998971 L 639.996723 13.998874 " stroke="#579158" stroke-width="28" stroke-opacity="1" stroke-miterlimit="4"/><path stroke-linecap="butt" transform="matrix(0.29432, -0.689837, 0.689837, 0.29432, 749.999969, 959.777129)" fill="none" stroke-linejoin="miter" d="M -0.00176605 13.998664 L 639.99967 14.001314 " stroke="#b0d9a9" stroke-width="28" stroke-opacity="1" stroke-miterlimit="4"/><path stroke-linecap="butt" transform="matrix(-0.292417, -0.690646, 0.690646, -0.292417, 937.146817, 975.100504)" fill="none" stroke-linejoin="miter" d="M -0.00169052 14.00007 L 640.001643 13.999257 " stroke="#579158" stroke-width="28" stroke-opacity="1" stroke-miterlimit="4"/><g clip-path="url(#4ca1ade502)"><g clip-path="url(#9f1667072b)"><g transform="matrix(1, 0, 0, 1, 755, 515)"><g clip-path="url(#4f1acd9659)"><g clip-path="url(#70e716961c)"><g clip-path="url(#29ad76c717)"><path fill="#579158" d="M 0.722656 0.175781 L 16.402344 0.175781 L 16.402344 13.875 L 0.722656 13.875 Z M 0.722656 0.175781 " fill-opacity="1" fill-rule="nonzero"/></g></g></g></g></g></g><path stroke-linecap="butt" transform="matrix(0.296166, -0.689047, 0.689047, 0.296166, 733.686954, 563.883339)" fill="none" stroke-linejoin="miter" d="M 0.00225759 4.501057 L 70.693714 4.496982 " stroke="#ffffff" stroke-width="9" stroke-opacity="1" stroke-miterlimit="4"/><path stroke-linecap="butt" transform="matrix(-0.290478, -0.691464, 0.691464, -0.290478, 788.108413, 569.507403)" fill="none" stroke-linejoin="miter" d="M 0.00158533 7.498606 L 70.6962 7.498735 " stroke="#ffffff" stroke-width="15" stroke-opacity="1" stroke-miterlimit="4"/><path stroke-linecap="butt" transform="matrix(-0.29432, 0.689837, -0.689837, -0.29432, 957.047999, 530.497782)" fill="none" stroke-linejoin="miter" d="M 0.00178836 13.998732 L 640.003225 14.001381 " stroke="#b0d9a9" stroke-width="28" stroke-opacity="1" stroke-miterlimit="4"/><path stroke-linecap="butt" transform="matrix(0.292417, 0.690646, -0.690646, 0.292417, 589.391935, 522.024607)" fill="none" stroke-linejoin="miter" d="M -0.00166504 13.999631 L 640.001668 13.998817 " stroke="#b0d9a9" stroke-width="28" stroke-opacity="1" stroke-miterlimit="4"/><g clip-path="url(#6521e3b551)"><g clip-path="url(#767b970bcd)"><g transform="matrix(1, 0, 0, 1, 755, 968)"><g clip-path="url(#5ce04c0670)"><g clip-path="url(#097df584e7)"><g clip-path="url(#35cf58c968)"><path fill="#b0d9a9" d="M 15.816406 13.949219 L 0.132812 13.949219 L 0.132812 0.25 L 15.816406 0.25 Z M 15.816406 13.949219 " fill-opacity="1" fill-rule="nonzero"/></g></g></g></g></g></g><path stroke-linecap="butt" transform="matrix(-0.296166, 0.689047, -0.689047, -0.296166, 792.495445, 933.241892)" fill="none" stroke-linejoin="miter" d="M 0.00134564 4.499716 L 70.694859 4.500425 " stroke="#ffffff" stroke-width="9" stroke-opacity="1" stroke-miterlimit="4"/><path stroke-linecap="butt" transform="matrix(0.290478, 0.691464, -0.691464, 0.290478, 738.426114, 927.6179)" fill="none" stroke-linejoin="miter" d="M -0.000479567 7.502479 L 70.694135 7.502607 " stroke="#ffffff" stroke-width="15" stroke-opacity="1" stroke-miterlimit="4"/><path stroke-linecap="butt" transform="matrix(-0.292417, -0.690646, 0.690646, -0.292417, 1117.656033, 968.250257)" fill="none" stroke-linejoin="miter" d="M 0.000654019 13.99903 L 639.99716 14.000983 " stroke="#b0d9a9" stroke-width="28" stroke-opacity="1" stroke-miterlimit="4"/><g clip-path="url(#8564aa4bfb)"><g clip-path="url(#dc4d6f6698)"><g transform="matrix(1, 0, 0, 1, 936, 508)"><g clip-path="url(#dba53c2204)"><g clip-path="url(#dbbdae0e2a)"><g clip-path="url(#941279a301)"><path fill="#b0d9a9" d="M 0.230469 0.324219 L 15.910156 0.324219 L 15.910156 14.023438 L 0.230469 14.023438 Z M 0.230469 0.324219 " fill-opacity="1" fill-rule="nonzero"/></g></g></g></g></g></g><path stroke-linecap="butt" transform="matrix(0.296166, -0.689047, 0.689047, 0.296166, 914.548323, 557.03314)" fill="none" stroke-linejoin="miter" d="M -0.00190728 4.499954 L 70.691606 4.500664 " stroke="#ffffff" stroke-width="9" stroke-opacity="1" stroke-miterlimit="4"/><path stroke-linecap="butt" transform="matrix(-0.290478, -0.691464, 0.691464, -0.290478, 968.61763, 562.657132)" fill="none" stroke-linejoin="miter" d="M -0.0029216 7.500332 L 70.691693 7.50046 " stroke="#ffffff" stroke-width="15" stroke-opacity="1" stroke-miterlimit="4"/><path stroke-linecap="butt" transform="matrix(-0.29432, 0.689837, -0.689837, -0.29432, 596.430678, 526.754455)" fill="none" stroke-linejoin="miter" d="M -0.00167371 14.000015 L 639.999763 14.002665 " stroke="#b0d9a9" stroke-width="28" stroke-opacity="1" stroke-miterlimit="4"/><path stroke-linecap="butt" transform="matrix(-0.292417, -0.690646, 0.690646, -0.292417, 755.617936, 968.250257)" fill="none" stroke-linejoin="miter" d="M 0.00115603 13.997845 L 639.997662 13.999797 " stroke="#b0d9a9" stroke-width="28" stroke-opacity="1" stroke-miterlimit="4"/><g clip-path="url(#9674b5a4e4)"><g clip-path="url(#528b2e5e8c)"><g transform="matrix(1, 0, 0, 1, 574, 508)"><g clip-path="url(#ae552920e1)"><g clip-path="url(#0885873a5d)"><g clip-path="url(#bbbc50411d)"><path fill="#b0d9a9" d="M 0.777344 0.933594 L 16.460938 0.933594 L 16.460938 14.632812 L 0.777344 14.632812 Z M 0.777344 0.933594 " fill-opacity="1" fill-rule="nonzero"/></g></g></g></g></g></g><path stroke-linecap="butt" transform="matrix(0.296166, -0.689047, 0.689047, 0.296166, 548.370874, 548.937053)" fill="none" stroke-linejoin="miter" d="M 0.000892452 4.501171 L 70.694405 4.50188 " stroke="#ffffff" stroke-width="9" stroke-opacity="1" stroke-miterlimit="4"/><path stroke-linecap="butt" transform="matrix(0.296166, -0.689047, 0.689047, 0.296166, 552.00889, 560.307652)" fill="none" stroke-linejoin="miter" d="M -0.000396437 4.499842 L 70.693116 4.500552 " stroke="#ffffff" stroke-width="9" stroke-opacity="1" stroke-miterlimit="4"/><path stroke-linecap="butt" transform="matrix(-0.294056, -0.68995, 0.68995, -0.294056, 602.642789, 552.98014)" fill="none" stroke-linejoin="miter" d="M 0.00155321 4.49853 L 70.691758 4.501003 " stroke="#ffffff" stroke-width="9" stroke-opacity="1" stroke-miterlimit="4"/><path stroke-linecap="butt" transform="matrix(0.299084, 0.687786, -0.687786, 0.299084, 744.142577, 941.321203)" fill="none" stroke-linejoin="miter" d="M -0.00213589 7.498796 L 70.695747 7.498853 " stroke="#ffffff" stroke-width="15" stroke-opacity="1" stroke-miterlimit="4"/><path stroke-linecap="butt" transform="matrix(-0.314294, 0.680969, -0.680969, -0.314294, 786.20615, 958.907249)" fill="none" stroke-linejoin="miter" d="M 0.00157155 7.50107 L 70.69582 7.501068 " stroke="#ffffff" stroke-width="15" stroke-opacity="1" stroke-miterlimit="4"/><path stroke-linecap="butt" transform="matrix(-0.292417, -0.690646, 0.690646, -0.292417, 937.146817, 975.100504)" fill="none" stroke-linejoin="miter" d="M -0.00169052 14.00007 L 640.001643 13.999257 " stroke="#579158" stroke-width="28" stroke-opacity="1" stroke-miterlimit="4"/><path stroke-linecap="butt" transform="matrix(0.296166, -0.689047, 0.689047, 0.296166, 730.586274, 570.733587)" fill="none" stroke-linejoin="miter" d="M 0.000181851 4.500668 L 70.693695 4.501378 " stroke="#ffffff" stroke-width="9" stroke-opacity="1" stroke-miterlimit="4"/><path stroke-linecap="butt" transform="matrix(0.29432, -0.689837, 0.689837, 0.29432, 568.96388, 967.614329)" fill="none" stroke-linejoin="miter" d="M 0.000269157 13.999147 L 640.001706 14.001797 " stroke="#579158" stroke-width="28" stroke-opacity="1" stroke-miterlimit="4"/><path stroke-linecap="butt" transform="matrix(-0.290478, -0.691464, 0.691464, -0.290478, 793.294429, 582.111914)" fill="none" stroke-linejoin="miter" d="M -0.000358682 7.499937 L 70.694256 7.500065 " stroke="#ffffff" stroke-width="15" stroke-opacity="1" stroke-miterlimit="4"/></svg>